<?xml version="1.0" encoding="UTF-8" standalone="no"?>
<!-- Created with Inkscape (http://www.inkscape.org/) -->

<svg
   xmlns:dc="http://purl.org/dc/elements/1.1/"
   xmlns:cc="http://creativecommons.org/ns#"
   xmlns:rdf="http://www.w3.org/1999/02/22-rdf-syntax-ns#"
   xmlns:svg="http://www.w3.org/2000/svg"
   xmlns="http://www.w3.org/2000/svg"
   xmlns:sodipodi="http://sodipodi.sourceforge.net/DTD/sodipodi-0.dtd"
   xmlns:inkscape="http://www.inkscape.org/namespaces/inkscape"
   width="578"
   height="309"
   id="svg16570"
   version="1.1"
   inkscape:version="0.48.4 r9939"
   sodipodi:docname="inverting.svg">
  <defs
     id="defs16572" />
  <sodipodi:namedview
     id="base"
     pagecolor="#ffffff"
     bordercolor="#666666"
     borderopacity="1.0"
     inkscape:pageopacity="0.0"
     inkscape:pageshadow="2"
     inkscape:zoom="1"
     inkscape:cx="341.98715"
     inkscape:cy="200"
     inkscape:document-units="px"
     inkscape:current-layer="layer1"
     showgrid="false"
     inkscape:window-width="1920"
     inkscape:window-height="1013"
     inkscape:window-x="0"
     inkscape:window-y="27"
     inkscape:window-maximized="1"
     inkscape:snap-nodes="false"
     inkscape:snap-bbox="true"
     inkscape:showpageshadow="false">
    <inkscape:grid
       type="xygrid"
       id="grid3003"
       empspacing="5"
       visible="true"
       enabled="true"
       snapvisiblegridlinesonly="true" />
  </sodipodi:namedview>
  <metadata
     id="metadata16575">
    <rdf:RDF>
      <cc:Work
         rdf:about="">
        <dc:format>image/svg+xml</dc:format>
        <dc:type
           rdf:resource="http://purl.org/dc/dcmitype/StillImage" />
        <dc:title />
      </cc:Work>
    </rdf:RDF>
  </metadata>
  <g
     inkscape:label="Layer 1"
     inkscape:groupmode="layer"
     id="layer1"
     transform="translate(0,-743.36218)">
    <g
       id="g17212"
       transform="translate(-78.305687,76.999994)">
      <rect
         style="color:#000000;fill:#eeeeec;fill-opacity:1;fill-rule:nonzero;stroke:none;stroke-width:2.5;marker:none;visibility:visible;display:inline;overflow:visible;enable-background:accumulate"
         id="rect17210"
         width="229"
         height="229"
         x="118.30569"
         y="706.36218" />
      <g
         id="g16604"
         transform="matrix(11.865285,0,0,11.865285,-1057.3938,-5054.8269)">
        <g
           style="display:inline"
           inkscape:label="camera-photo"
           id="g16593"
           transform="translate(81,211)">
          <rect
             style="color:#bebebe;fill:none;stroke:none;stroke-width:1;marker:none;visibility:visible;display:inline;overflow:visible"
             id="rect16595"
             width="16"
             height="16"
             x="20"
             y="276"
             inkscape:label="a" />
          <path
             inkscape:connector-curvature="0"
             id="path16597"
             d="m 26,278 c -0.549959,0 -1,0.45004 -1,1 l 0,1 -3,0 c -0.552014,0 -1,0.45004 -1,1 l 0,8 c 0,0.54996 0.447986,1 1,1 l 12,0 c 0.552014,0 1,-0.45004 1,-1 l 0,-8 c 0,-0.54996 -0.447986,-1 -1,-1 l -3,0 0,-1 c 0,-0.54996 -0.450041,-1 -1,-1 z m 2,3 c 2.209139,0 4,1.79086 4,4 0,2.20914 -1.790861,4 -4,4 -2.209139,0 -4,-1.79086 -4,-4 0,-2.20914 1.790861,-4 4,-4 z"
             style="color:#bebebe;fill:#2e3436;fill-opacity:1;fill-rule:nonzero;stroke:none;stroke-width:3;marker:none;visibility:visible;display:inline;overflow:visible;enable-background:accumulate"
             sodipodi:nodetypes="sscsssssssscssssssss" />
        </g>
        <path
           style="color:#000000;fill:#2e3436;fill-opacity:1;fill-rule:nonzero;stroke:none;stroke-width:2.5;marker:none;visibility:visible;display:inline;overflow:visible;enable-background:accumulate"
           d="m -132,276 c -1.65685,0 -3,1.34315 -3,3 0,1.65685 1.34315,3 3,3 1.65685,0 3,-1.34315 3,-3 0,-1.65685 -1.34315,-3 -3,-3 z m 1,1 c 0.55228,0 1,0.44772 1,1 0,0.55228 -0.44772,1 -1,1 -0.55228,0 -1,-0.44772 -1,-1 0,-0.55228 0.44772,-1 1,-1 z"
           transform="translate(241.0002,217)"
           id="path16599"
           inkscape:connector-curvature="0" />
      </g>
    </g>
    <g
       id="g3032"
       transform="translate(-129.00001,50.999997)">
      <g
         transform="translate(59.694313,25.999997)"
         id="g17220">
        <rect
           style="color:#000000;fill:#2e3436;fill-opacity:1;fill-rule:nonzero;stroke:none;stroke-width:2.5;marker:none;visibility:visible;display:inline;overflow:visible;enable-background:accumulate"
           id="rect16650"
           width="229"
           height="229"
           x="378.30569"
           y="706.36218" />
        <g
           id="g16640"
           transform="matrix(11.865285,0,0,11.865285,-798.73057,-5054.8269)">
          <g
             style="display:inline"
             inkscape:label="camera-photo"
             id="g16642"
             transform="translate(81,211)">
            <rect
               style="color:#bebebe;fill:none;stroke:none;stroke-width:1;marker:none;visibility:visible;display:inline;overflow:visible"
               id="rect16644"
               width="16"
               height="16"
               x="20"
               y="276"
               inkscape:label="a" />
            <path
               inkscape:connector-curvature="0"
               id="path16646"
               d="m 26,278 c -0.549959,0 -1,0.45004 -1,1 l 0,1 -3,0 c -0.552014,0 -1,0.45004 -1,1 l 0,8 c 0,0.54996 0.447986,1 1,1 l 12,0 c 0.552014,0 1,-0.45004 1,-1 l 0,-8 c 0,-0.54996 -0.447986,-1 -1,-1 l -3,0 0,-1 c 0,-0.54996 -0.450041,-1 -1,-1 z m 2,3 c 2.209139,0 4,1.79086 4,4 0,2.20914 -1.790861,4 -4,4 -2.209139,0 -4,-1.79086 -4,-4 0,-2.20914 1.790861,-4 4,-4 z"
               style="color:#bebebe;fill:#eeeeec;fill-opacity:1;fill-rule:nonzero;stroke:none;stroke-width:3;marker:none;visibility:visible;display:inline;overflow:visible;enable-background:accumulate"
               sodipodi:nodetypes="sscsssssssscssssssss" />
          </g>
          <path
             style="color:#000000;fill:#eeeeec;fill-opacity:1;fill-rule:nonzero;stroke:none;stroke-width:2.5;marker:none;visibility:visible;display:inline;overflow:visible;enable-background:accumulate"
             d="m -132,276 c -1.65685,0 -3,1.34315 -3,3 0,1.65685 1.34315,3 3,3 1.65685,0 3,-1.34315 3,-3 0,-1.65685 -1.34315,-3 -3,-3 z m 1,1 c 0.55228,0 1,0.44772 1,1 0,0.55228 -0.44772,1 -1,1 -0.55228,0 -1,-0.44772 -1,-1 0,-0.55228 0.44772,-1 1,-1 z"
             transform="translate(241.0002,217)"
             id="path16648"
             inkscape:connector-curvature="0" />
        </g>
      </g>
    </g>
  </g>
</svg>
