<?xml version="1.0" encoding="UTF-8" standalone="no"?>
<!-- Created with Inkscape (http://www.inkscape.org/) -->

<svg
   xmlns:dc="http://purl.org/dc/elements/1.1/"
   xmlns:cc="http://creativecommons.org/ns#"
   xmlns:rdf="http://www.w3.org/1999/02/22-rdf-syntax-ns#"
   xmlns:svg="http://www.w3.org/2000/svg"
   xmlns="http://www.w3.org/2000/svg"
   xmlns:sodipodi="http://sodipodi.sourceforge.net/DTD/sodipodi-0.dtd"
   xmlns:inkscape="http://www.inkscape.org/namespaces/inkscape"
   width="280"
   height="280"
   id="svg11709"
   version="1.1"
   inkscape:version="0.91 r13725"
   sodipodi:docname="toolbar.svg">
  <defs
     id="defs11711" />
  <sodipodi:namedview
     id="base"
     pagecolor="#ffffff"
     bordercolor="#666666"
     borderopacity="1.0"
     inkscape:pageopacity="0.0"
     inkscape:pageshadow="2"
     inkscape:zoom="1"
     inkscape:cx="-109.8516"
     inkscape:cy="187.28443"
     inkscape:document-units="px"
     inkscape:current-layer="layer1"
     showgrid="false"
     inkscape:showpageshadow="false"
     inkscape:window-width="1410"
     inkscape:window-height="874"
     inkscape:window-x="234"
     inkscape:window-y="144"
     inkscape:window-maximized="0" />
  <metadata
     id="metadata11714">
    <rdf:RDF>
      <cc:Work
         rdf:about="">
        <dc:format>image/svg+xml</dc:format>
        <dc:type
           rdf:resource="http://purl.org/dc/dcmitype/StillImage" />
        <dc:title />
      </cc:Work>
    </rdf:RDF>
  </metadata>
  <g
     inkscape:label="Layer 1"
     inkscape:groupmode="layer"
     id="layer1"
     transform="translate(0,-772.36218)">
    <rect
       inkscape:export-ydpi="90"
       inkscape:export-xdpi="90"
       inkscape:export-filename="/home/aday/checkout/gnome-devel-docs/hig3/C/figures/toolbar.png"
       y="792.86218"
       x="20.5"
       height="239"
       width="239"
       id="rect16379"
       style="color:#000000;display:inline;overflow:visible;visibility:visible;fill:#ffffff;fill-opacity:1;fill-rule:nonzero;stroke:#babdb6;stroke-width:1;stroke-linecap:square;stroke-linejoin:miter;stroke-miterlimit:4;stroke-dasharray:none;stroke-dashoffset:0;stroke-opacity:1;marker:none;enable-background:accumulate" />
    <rect
       inkscape:export-ydpi="90"
       inkscape:export-xdpi="90"
       inkscape:export-filename="/home/aday/checkout/gnome-devel-docs/hig3/C/figures/toolbar.png"
       style="color:#000000;display:inline;overflow:visible;visibility:visible;fill:#eaeaea;fill-opacity:1;fill-rule:nonzero;stroke:#babdb6;stroke-width:1;stroke-linecap:square;stroke-linejoin:miter;stroke-miterlimit:4;stroke-dasharray:none;stroke-dashoffset:0;stroke-opacity:1;marker:none;enable-background:accumulate"
       id="rect16381"
       width="239"
       height="81"
       x="20.5"
       y="792.86218" />
    <path
       style="fill:none;stroke:#d6d6d6;stroke-width:1px;stroke-linecap:square;stroke-linejoin:miter;stroke-opacity:1"
       d="m 21.5039,822.8621 236.9922,0"
       id="path16383"
       inkscape:connector-curvature="0"
       inkscape:export-filename="/home/aday/checkout/gnome-devel-docs/hig3/C/figures/toolbar.png"
       inkscape:export-xdpi="90"
       inkscape:export-ydpi="90" />
    <rect
       inkscape:export-ydpi="90"
       inkscape:export-xdpi="90"
       inkscape:export-filename="/home/aday/checkout/gnome-devel-docs/hig3/C/figures/toolbar.png"
       ry="3"
       rx="3.0000005"
       y="831.86218"
       x="29.492188"
       height="33"
       width="165"
       id="rect16385"
       style="color:#000000;display:inline;overflow:visible;visibility:visible;fill:#eaeaea;fill-opacity:1;fill-rule:nonzero;stroke:#a7a7a7;stroke-width:1;stroke-linecap:butt;stroke-linejoin:miter;stroke-miterlimit:4;stroke-dasharray:none;stroke-dashoffset:0;stroke-opacity:1;marker:none;enable-background:accumulate" />
    <path
       inkscape:export-ydpi="90"
       inkscape:export-xdpi="90"
       inkscape:export-filename="/home/aday/checkout/gnome-devel-docs/hig3/C/figures/toolbar.png"
       style="fill:none;stroke:#a7a7a7;stroke-width:1px;stroke-linecap:butt;stroke-linejoin:miter;stroke-opacity:1"
       d="m 139.4922,831.8621 0,32.75"
       id="path16387"
       inkscape:connector-curvature="0" />
    <path
       inkscape:export-ydpi="90"
       inkscape:export-xdpi="90"
       inkscape:export-filename="/home/aday/checkout/gnome-devel-docs/hig3/C/figures/toolbar.png"
       inkscape:connector-curvature="0"
       id="path16389"
       d="m 84.4927,831.8621 0,32.7499"
       style="fill:none;stroke:#a7a7a7;stroke-width:1px;stroke-linecap:butt;stroke-linejoin:miter;stroke-opacity:1" />
    <g
       inkscape:export-ydpi="90"
       inkscape:export-xdpi="90"
       inkscape:export-filename="/home/aday/checkout/gnome-devel-docs/hig3/C/figures/toolbar.png"
       style="fill:#2e3436"
       transform="translate(48.9925,840.3933)"
       id="g16391">
      <g
         id="g16393"
         inkscape:label="status"
         style="display:inline;fill:#2e3436"
         transform="translate(-221.00011,-807)" />
      <g
         id="g16395"
         inkscape:label="devices"
         style="display:inline;fill:#2e3436"
         transform="translate(-221.00011,-807)" />
      <g
         style="fill:#2e3436"
         id="g16397"
         inkscape:label="apps"
         transform="translate(-221.00011,-807)" />
      <g
         id="g16399"
         inkscape:label="places"
         style="display:inline;fill:#2e3436"
         transform="translate(-221.00011,-807)" />
      <g
         style="fill:#2e3436"
         id="g16401"
         inkscape:label="mimetypes"
         transform="translate(-221.00011,-807)" />
      <g
         id="g16403"
         inkscape:label="emblems"
         style="display:inline;fill:#2e3436"
         transform="translate(-221.00011,-807)" />
      <g
         id="g16405"
         inkscape:label="emotes"
         style="display:inline;fill:#2e3436"
         transform="translate(-221.00011,-807)" />
      <g
         id="g16407"
         inkscape:label="categories"
         style="display:inline;fill:#2e3436"
         transform="translate(-221.00011,-807)" />
      <g
         id="g16409"
         inkscape:label="actions"
         style="display:inline;fill:#2e3436"
         transform="translate(-221.00011,-807)">
        <path
           inkscape:connector-curvature="0"
           d="m 223.8125,808.03125 a 1.0001,1.0001 0 0 0 -0.8125,1 l 0,12.9375 a 1.0001,1.0001 0 0 0 1,1 l 10,0 a 1.0001,1.0001 0 0 0 1,-1 l 0,-5.03125 a 1.0001,1.0001 0 1 0 -2,0 l 0,4.03125 -8,0 0,-10.9375 1.96875,0 a 1.0001,1.0001 0 1 0 0,-2 l -2.96875,0 a 1.0001,1.0001 0 0 0 -0.1875,0 z"
           id="path16411"
           style="color:#000000;font-style:normal;font-variant:normal;font-weight:normal;font-stretch:normal;font-size:medium;line-height:normal;font-family:Sans;-inkscape-font-specification:Sans;text-indent:0;text-align:start;text-decoration:none;text-decoration-line:none;letter-spacing:normal;word-spacing:normal;text-transform:none;direction:ltr;block-progression:tb;writing-mode:lr-tb;baseline-shift:baseline;text-anchor:start;display:inline;overflow:visible;visibility:visible;fill:#2e3436;fill-opacity:1;stroke:none;stroke-width:2;marker:none;enable-background:accumulate" />
        <path
           inkscape:connector-curvature="0"
           d="m 230.00021,808.99662 0,1.99673 -2,0 0,1.99673 2,0 0,1.99674 2,0 0,-1.99674 2,0 0,-1.99673 -2,0 0,-1.99673 -2,0 z"
           id="path16413"
           style="display:inline;fill:#2e3436;fill-opacity:1;stroke:none" />
      </g>
    </g>
    <g
       inkscape:export-ydpi="90"
       inkscape:export-xdpi="90"
       inkscape:export-filename="/home/aday/checkout/gnome-devel-docs/hig3/C/figures/toolbar.png"
       style="fill:#2e3436"
       transform="translate(103.9922,839.3621)"
       id="g16415">
      <g
         inkscape:label="status"
         transform="translate(-160.0002,-646)"
         id="g16417"
         style="display:inline;fill:#2e3436" />
      <g
         style="fill:#2e3436"
         inkscape:label="devices"
         transform="translate(-160.0002,-646)"
         id="g16419" />
      <g
         style="fill:#2e3436"
         inkscape:label="apps"
         transform="translate(-160.0002,-646)"
         id="g16421" />
      <g
         style="fill:#2e3436"
         inkscape:label="actions"
         transform="translate(-160.0002,-646)"
         id="g16423">
        <path
           inkscape:connector-curvature="0"
           d="m 160.53145,651 c -0.28913,0 -0.53125,0.2421 -0.53125,0.5313 l 0,9.9375 c 0,0.2985 0.23264,0.5312 0.53125,0.5312 l 13.8125,0 c 0.2986,0 0.53125,-0.2326 0.53125,-0.5312 l 1.125,-4.9159 c 0,-0.2891 -0.24212,-0.5312 -0.53125,-0.5312 l -11.59375,0 -0.875,3.4783 c 0,0.277 -0.223,0.5 -0.5,0.5 -0.277,0 -0.5,-0.223 -0.5,-0.5 l 0,-4.9966 c 0,-0.277 0.223,-0.5 0.5,-0.5 l 0.46615,0 0,-3.0034 z"
           id="path16425"
           sodipodi:nodetypes="ccccccccccscccccc"
           style="display:inline;fill:#2e3436;fill-opacity:1;stroke:none" />
        <path
           inkscape:connector-curvature="0"
           d="m 164.8127,647 c -0.4584,0.0875 -0.82072,0.5334 -0.8125,1 l 0,7 2,0 0,-6 4,0 0,3 3,0 0,3 2,0 0,-3.4375 c 0.006,-0.2641 -0.0976,-0.529 -0.28125,-0.7188 l -3.5625,-3.56245 c -0.18978,-0.1837 -0.45469,-0.28737 -0.71875,-0.28125 l -5.4375,0 c -0.0312,-10e-4 -0.0625,-10e-4 -0.0937,0 -0.0312,-10e-4 -0.0625,-10e-4 -0.0937,0 z"
           id="path16427"
           sodipodi:nodetypes="cccccccccccccccccc"
           style="color:#000000;font-style:normal;font-variant:normal;font-weight:normal;font-stretch:normal;font-size:medium;line-height:normal;font-family:Sans;-inkscape-font-specification:Sans;text-indent:0;text-align:start;text-decoration:none;text-decoration-line:none;letter-spacing:normal;word-spacing:normal;text-transform:none;direction:ltr;block-progression:tb;writing-mode:lr-tb;baseline-shift:baseline;text-anchor:start;display:inline;overflow:visible;visibility:visible;fill:#2e3436;fill-opacity:1;stroke:none;stroke-width:1.99999988;marker:none;enable-background:accumulate" />
      </g>
      <g
         style="fill:#2e3436"
         inkscape:label="places"
         transform="translate(-160.0002,-646)"
         id="g16429" />
      <g
         style="fill:#2e3436"
         inkscape:label="mimetypes"
         transform="translate(-160.0002,-646)"
         id="g16431" />
      <g
         inkscape:label="emblems"
         transform="translate(-160.0002,-646)"
         id="g16433"
         style="display:inline;fill:#2e3436" />
      <g
         inkscape:label="categories"
         transform="translate(-160.0002,-646)"
         id="g16435"
         style="display:inline;fill:#2e3436" />
    </g>
    <g
       inkscape:export-ydpi="90"
       inkscape:export-xdpi="90"
       inkscape:export-filename="/home/aday/checkout/gnome-devel-docs/hig3/C/figures/toolbar.png"
       style="fill:#2e3436"
       transform="translate(158.992,840.3621)"
       id="g16437">
      <g
         inkscape:label="status"
         transform="translate(-80,-648)"
         id="g16439"
         style="display:inline;fill:#2e3436" />
      <g
         style="fill:#2e3436"
         inkscape:label="devices"
         transform="translate(-80,-648)"
         id="g16441" />
      <g
         style="fill:#2e3436"
         inkscape:label="apps"
         transform="translate(-80,-648)"
         id="g16443" />
      <g
         style="fill:#2e3436"
         inkscape:label="actions"
         transform="translate(-80,-648)"
         id="g16445">
        <path
           inkscape:connector-curvature="0"
           d="m 84.40625,657 a 0.50005,0.50005 0 0 0 -0.3125,0.21875 l -1,1.5 a 0.50005,0.50005 0 1 0 0.8125,0.5625 l 1,-1.5 A 0.50005,0.50005 0 0 0 84.40625,657 Z m 7,0 a 0.50005,0.50005 0 0 0 -0.3125,0.78125 l 1,1.5 a 0.50005,0.50005 0 1 0 0.8125,-0.5625 l -1,-1.5 A 0.50005,0.50005 0 0 0 91.40625,657 Z"
           id="path16447"
           style="color:#bebebe;font-style:normal;font-variant:normal;font-weight:normal;font-stretch:normal;font-size:medium;line-height:normal;font-family:Sans;-inkscape-font-specification:Sans;text-indent:0;text-align:start;text-decoration:none;text-decoration-line:none;letter-spacing:normal;word-spacing:normal;text-transform:none;direction:ltr;block-progression:tb;writing-mode:lr-tb;baseline-shift:baseline;text-anchor:start;display:inline;overflow:visible;visibility:visible;fill:#2e3436;fill-opacity:1;stroke:none;stroke-width:1;marker:none;enable-background:accumulate" />
        <g
           style="fill:#2e3436"
           transform="translate(-80,110)"
           id="g16449">
          <path
             inkscape:connector-curvature="0"
             d="m 167,539 0,5.5625 -1.28125,-1.28125 C 165.53059,543.0931 165.2653,543.00001 165,543 l -1,0 0,1 c 1e-5,0.2653 0.0931,0.53058 0.28125,0.71875 l 3,3 0.28125,0.28125 0.875,0 0.28125,-0.28125 3,-3 C 171.90694,544.53058 171.99999,544.2653 172,544 l 0,-1 -1,0 c -0.2653,10e-6 -0.53059,0.0931 -0.71875,0.28125 L 169,544.5625 169,539 Z"
             id="path16451"
             sodipodi:nodetypes="ccccccccccccccccccc"
             style="color:#000000;font-style:normal;font-variant:normal;font-weight:normal;font-stretch:normal;font-size:medium;line-height:normal;font-family:'Bitstream Vera Sans';-inkscape-font-specification:'Bitstream Vera Sans';text-indent:0;text-align:start;text-decoration:none;text-decoration-line:none;letter-spacing:normal;word-spacing:normal;text-transform:none;direction:ltr;block-progression:tb;writing-mode:lr-tb;text-anchor:start;display:inline;overflow:visible;visibility:visible;fill:#2e3436;fill-opacity:1;stroke:none;stroke-width:2;marker:none;enable-background:accumulate" />
          <path
             inkscape:connector-curvature="0"
             d="m 163,549 0,4 10,0 0,-4 z m 3.34375,1.4375 c 0.0208,-10e-4 0.0417,-10e-4 0.0625,0 0.29096,-0.0556 0.59898,0.20383 0.59375,0.5 l 0,0.0625 2,0 0,-0.0625 c -0.004,-0.26416 0.23582,-0.50712 0.5,-0.50712 0.26418,0 0.50373,0.24296 0.5,0.50712 L 170,551 c 0,0.54535 -0.45465,1 -1,1 l -2,0 c -0.54535,0 -1,-0.45465 -1,-1 l 0,-0.0625 c -0.0108,-0.21706 0.13723,-0.43234 0.34375,-0.5 z"
             id="path16453"
             sodipodi:nodetypes="ccccccsccccsccccccc"
             style="color:#000000;display:inline;overflow:visible;visibility:visible;fill:#2e3436;fill-opacity:1;fill-rule:evenodd;stroke:none;stroke-width:1;marker:none;enable-background:accumulate" />
        </g>
      </g>
      <g
         style="fill:#2e3436"
         inkscape:label="places"
         transform="translate(-80,-648)"
         id="g16455" />
      <g
         style="fill:#2e3436"
         inkscape:label="mimetypes"
         transform="translate(-80,-648)"
         id="g16457" />
      <g
         inkscape:label="emblems"
         transform="translate(-80,-648)"
         id="g16459"
         style="display:inline;fill:#2e3436" />
    </g>
  </g>
</svg>
