<?xml version="1.0" encoding="UTF-8" standalone="no"?><!-- Created with Inkscape (http://www.inkscape.org/) --><svg xmlns:dc="http://purl.org/dc/elements/1.1/" xmlns:cc="http://creativecommons.org/ns#" xmlns:rdf="http://www.w3.org/1999/02/22-rdf-syntax-ns#" xmlns:svg="http://www.w3.org/2000/svg" xmlns="http://www.w3.org/2000/svg" xmlns:sodipodi="http://sodipodi.sourceforge.net/DTD/sodipodi-0.dtd" xmlns:inkscape="http://www.inkscape.org/namespaces/inkscape" width="940" height="540" id="svg6276" version="1.1" inkscape:version="0.48.4 r9939" sodipodi:docname="presentation-dialog.svg"><defs id="defs6278"><mask maskUnits="userSpaceOnUse" id="mask20350"><rect style="fill:#ffffff;fill-opacity:1;stroke:#ffffff;stroke-width:2;stroke-linecap:square;stroke-miterlimit:4;stroke-opacity:1;stroke-dasharray:none" id="rect20352" width="153" height="22" x="-1864" y="1028.3622" /></mask></defs><sodipodi:namedview id="base" pagecolor="#ffffff" bordercolor="#666666" borderopacity="1.0" inkscape:pageopacity="0.0" inkscape:pageshadow="2" inkscape:zoom="1" inkscape:cx="528.46076" inkscape:cy="261.76772" inkscape:document-units="px" inkscape:current-layer="layer1" showgrid="false" inkscape:showpageshadow="false" inkscape:window-width="1920" inkscape:window-height="1133" inkscape:window-x="0" inkscape:window-y="27" inkscape:window-maximized="1"><inkscape:grid type="xygrid" id="grid6749" empspacing="5" visible="true" enabled="true" snapvisiblegridlinesonly="true" /></sodipodi:namedview><metadata id="metadata6281"><rdf:RDF><cc:Work rdf:about=""><dc:format>image/svg+xml</dc:format><dc:type rdf:resource="http://purl.org/dc/dcmitype/StillImage" /><dc:title></dc:title></cc:Work></rdf:RDF></metadata><g inkscape:label="Layer 1" inkscape:groupmode="layer" id="layer1" transform="translate(0,-512.36218)"><g transform="translate(-2522,283.99988)" id="g9929"><rect style="fill:#e5e6e5;fill-opacity:1;stroke:#a7aba7;stroke-width:0.99999994;stroke-opacity:1" id="rect9931" width="685" height="106" x="2649.5" y="284.8623" rx="9" ry="9" inkscape:export-filename="/home/aday/checkout/gnome-devel-docs/hig3/C/figures/presentation-dialog.png" inkscape:export-xdpi="90" inkscape:export-ydpi="90" /><rect y="325.8623" x="2649.5" height="386" width="685" id="rect9933" style="fill:#eeeeec;fill-opacity:1;stroke:#a7a7a7;stroke-width:0.99999994;stroke-linecap:square;stroke-miterlimit:4;stroke-opacity:1;stroke-dasharray:none;stroke-dashoffset:0" mask="none" inkscape:export-filename="/home/aday/checkout/gnome-devel-docs/hig3/C/figures/presentation-dialog.png" inkscape:export-xdpi="90" inkscape:export-ydpi="90" /><g transform="translate(0,1180)" id="g9935" style="opacity:0.25;fill:#000000;fill-opacity:1;stroke:#000000;stroke-opacity:1" inkscape:export-filename="/home/aday/checkout/gnome-devel-docs/hig3/C/figures/presentation-dialog.png" inkscape:export-xdpi="90" inkscape:export-ydpi="90"><rect style="fill:#000000;fill-opacity:1;stroke:#000000;stroke-width:0.99999994;stroke-opacity:1" id="rect9937" width="685" height="106" x="2649.5" y="-895.1377" rx="9" ry="9" /><rect y="-854.1377" x="2649.5" height="386" width="685" id="rect9939" style="fill:#000000;fill-opacity:1;stroke:#000000;stroke-width:0.99999994;stroke-linecap:square;stroke-miterlimit:4;stroke-opacity:1;stroke-dasharray:none;stroke-dashoffset:0" mask="none" /></g><path inkscape:connector-curvature="0" id="path9941" d="m 3293.5,293.7365 0,23.2514" style="fill:none;stroke:#a7a7a7;stroke-width:1px;stroke-linecap:round;stroke-linejoin:miter;stroke-opacity:1;display:inline" inkscape:export-filename="/home/aday/checkout/gnome-devel-docs/hig3/C/figures/presentation-dialog.png" inkscape:export-xdpi="90" inkscape:export-ydpi="90" /><g style="fill:#888a85;display:inline" transform="translate(3306.0016,297.3623)" id="g9943" inkscape:export-filename="/home/aday/checkout/gnome-devel-docs/hig3/C/figures/presentation-dialog.png" inkscape:export-xdpi="90" inkscape:export-ydpi="90"><g transform="translate(-60,-518)" id="g9945" style="fill:#888a85;display:inline" /><g style="fill:#888a85" transform="translate(-60,-518)" id="g9947" /><g style="fill:#888a85" transform="translate(-60,-518)" id="g9949" /><g style="fill:#888a85" transform="translate(-60,-518)" id="g9951"><g transform="translate(19,-242)" id="g9953" style="fill:#888a85;display:inline"><path inkscape:connector-curvature="0" d="m 45,764 1,0 c 0.01037,-1.2e-4 0.02079,-4.6e-4 0.03125,0 0.254951,0.0112 0.50987,0.12858 0.6875,0.3125 L 49,766.59375 51.3125,764.3125 C 51.578125,764.082 51.759172,764.007 52,764 l 1,0 0,1 c 0,0.28647 -0.03434,0.55065 -0.25,0.75 l -2.28125,2.28125 2.25,2.25 C 52.906938,770.46942 52.999992,770.7347 53,771 l 0,1 -1,0 c -0.265301,-10e-6 -0.530586,-0.0931 -0.71875,-0.28125 L 49,769.4375 46.71875,771.71875 C 46.530586,771.90694 46.26529,772 46,772 l -1,0 0,-1 c -3e-6,-0.26529 0.09306,-0.53058 0.28125,-0.71875 l 2.28125,-2.25 L 45.28125,765.75 C 45.070508,765.55537 44.97809,765.28075 45,765 l 0,-1 z" id="path9955" style="font-size:medium;font-style:normal;font-variant:normal;font-weight:normal;font-stretch:normal;text-indent:0;text-align:start;text-decoration:none;line-height:normal;letter-spacing:normal;word-spacing:normal;text-transform:none;direction:ltr;block-progression:tb;writing-mode:lr-tb;text-anchor:start;color:#bebebe;fill:#888a85;fill-opacity:1;fill-rule:nonzero;stroke:none;stroke-width:1.78124988;marker:none;visibility:visible;display:inline;overflow:visible;enable-background:new;font-family:Andale Mono;-inkscape-font-specification:Andale Mono" /></g></g><g style="fill:#888a85" transform="translate(-60,-518)" id="g9957" /><g style="fill:#888a85" transform="translate(-60,-518)" id="g9959" /><g style="fill:#888a85" transform="translate(-60,-518)" id="g9961" /></g><rect inkscape:export-ydpi="90" inkscape:export-xdpi="90" inkscape:export-filename="/home/aday/checkout/gnome-devel-docs/hig3/C/figures/presentation-dialog.png" ry="9" rx="9" y="364.8623" x="2772.5" height="106" width="439" id="rect9964" style="fill:#e5e6e5;fill-opacity:1;stroke:#a7aba7;stroke-width:0.99999988;stroke-opacity:1" /><rect inkscape:export-ydpi="90" inkscape:export-xdpi="90" inkscape:export-filename="/home/aday/checkout/gnome-devel-docs/hig3/C/figures/presentation-dialog.png" mask="none" style="fill:#eeeeec;fill-opacity:1;stroke:#a7a7a7;stroke-width:0.99999988;stroke-linecap:square;stroke-miterlimit:4;stroke-opacity:1;stroke-dasharray:none;stroke-dashoffset:0" id="rect9966" width="439" height="225.99989" x="2772.5" y="405.8623" /><text inkscape:export-ydpi="90" inkscape:export-xdpi="90" inkscape:export-filename="/home/aday/checkout/gnome-devel-docs/hig3/C/figures/presentation-dialog.png" sodipodi:linespacing="125%" id="text9968" y="390.13623" x="2991.9844" style="font-size:14px;font-style:normal;font-variant:normal;font-weight:bold;font-stretch:normal;text-align:center;line-height:125%;letter-spacing:0px;word-spacing:0px;text-anchor:middle;fill:#2e3436;fill-opacity:1;stroke:none;font-family:Cantarell;-inkscape-font-specification:Cantarell Bold" xml:space="preserve"><tspan y="390.13623" x="2991.9844" id="tspan9970" sodipodi:role="line">Представление</tspan></text><g id="g9972" transform="translate(3183.0016,377.3623)" style="fill:#888a85;display:inline" inkscape:export-filename="/home/aday/checkout/gnome-devel-docs/hig3/C/figures/presentation-dialog.png" inkscape:export-xdpi="90" inkscape:export-ydpi="90"><g style="fill:#888a85;display:inline" id="g9974" transform="translate(-60,-518)" /><g id="g9977" transform="translate(-60,-518)" style="fill:#888a85" /><g id="g9979" transform="translate(-60,-518)" style="fill:#888a85" /><g id="g9981" transform="translate(-60,-518)" style="fill:#888a85"><g style="fill:#888a85;display:inline" id="g9983" transform="translate(19,-242)"><path style="font-size:medium;font-style:normal;font-variant:normal;font-weight:normal;font-stretch:normal;text-indent:0;text-align:start;text-decoration:none;line-height:normal;letter-spacing:normal;word-spacing:normal;text-transform:none;direction:ltr;block-progression:tb;writing-mode:lr-tb;text-anchor:start;color:#bebebe;fill:#888a85;fill-opacity:1;fill-rule:nonzero;stroke:none;stroke-width:1.78124988;marker:none;visibility:visible;display:inline;overflow:visible;enable-background:new;font-family:Andale Mono;-inkscape-font-specification:Andale Mono" id="path9985" d="m 45,764 1,0 c 0.01037,-1.2e-4 0.02079,-4.6e-4 0.03125,0 0.254951,0.0112 0.50987,0.12858 0.6875,0.3125 L 49,766.59375 51.3125,764.3125 C 51.578125,764.082 51.759172,764.007 52,764 l 1,0 0,1 c 0,0.28647 -0.03434,0.55065 -0.25,0.75 l -2.28125,2.28125 2.25,2.25 C 52.906938,770.46942 52.999992,770.7347 53,771 l 0,1 -1,0 c -0.265301,-10e-6 -0.530586,-0.0931 -0.71875,-0.28125 L 49,769.4375 46.71875,771.71875 C 46.530586,771.90694 46.26529,772 46,772 l -1,0 0,-1 c -3e-6,-0.26529 0.09306,-0.53058 0.28125,-0.71875 l 2.28125,-2.25 L 45.28125,765.75 C 45.070508,765.55537 44.97809,765.28075 45,765 l 0,-1 z" inkscape:connector-curvature="0" /></g></g><g id="g9987" transform="translate(-60,-518)" style="fill:#888a85" /><g id="g9989" transform="translate(-60,-518)" style="fill:#888a85" /><g id="g9991" transform="translate(-60,-518)" style="fill:#888a85" /></g><path inkscape:connector-curvature="0" id="path9993" d="m 3170.5,376.857 0,17.0103" style="fill:none;stroke:#a7a7a7;stroke-width:0.99999988px;stroke-linecap:round;stroke-linejoin:miter;stroke-opacity:1;display:inline" inkscape:export-filename="/home/aday/checkout/gnome-devel-docs/hig3/C/figures/presentation-dialog.png" inkscape:export-xdpi="90" inkscape:export-ydpi="90" /></g></g></svg>